# xmcd
#
# Track frame offsets:
#  150
#  4604
#  20418
#  35153
#  57231
#  81846
#  113519
#  133343
#  164277
#  193497
#  209304
#  227642
#  243750
#  264668
#  280709
#  295225
#  319217
#
# Disc length: 4526 seconds
#
# Revision: 0
# Processed by: cddbd v1.5.1PL2 Copyright (c) Steve Scherf et al.
# Submitted via: Collectorz.com_Music_Collector 6.11
#
DISCID=f311ac11
DTITLE=Guy Clark, Joe Ely, John Hiatt and Lye Lovett - Wharton Center, Great Cobb Hall, Mi - 18 Nov 2005 [CD1)
DYEAR=2005
DGENRE=Alt Country
TTITLE0=Intro
TTITLE1=Guy Clark - The Cape
TTITLE2=Joe Ely - I Had My Hopes Up High
TTITLE3=John Hiatt - Wintertime Blues
TTITLE4=lye lovett - In My Own Mind
TTITLE5=Guy Clark - La Freeway
TTITLE6=Joe Ely - Up On The Ridge
TTITLE7=John Hiatt - Thunderbird
TTITLE8=Talking About First Cars
TTITLE9=lye lovett - La County
TTITLE10=Guy Clark - Stuff That Works
TTITLE11=Joe Ely - Me And Billy The Kid
TTITLE12=John Hiatt - Drive South
TTITLE13=Talking About Favourite Cover Versions
TTITLE14=lye lovett - She's No Lady
TTITLE15=Guy Clark - Desperados Waiting For A Train
TTITLE16=Joe Ely - Letter To Laredo
EXTD=
EXTT0=
EXTT1=
EXTT2=
EXTT3=
EXTT4=
EXTT5=
EXTT6=
EXTT7=
EXTT8=
EXTT9=
EXTT10=
EXTT11=
EXTT12=
EXTT13=
EXTT14=
EXTT15=
EXTT16=
PLAYORDER=
